<svg width="100" height="100" viewBox="0 0 100 100" fill="none" xmlns="http://www.w3.org/2000/svg">
<path opacity="0.3" d="M25 12.5H75V79.1667H25V12.5Z" fill="#7031F5"/>
<path d="M68.7502 4.16669H31.2502C25.5002 4.16669 20.8335 8.83335 20.8335 14.5834V85.4167C20.8335 91.1667 25.5002 95.8334 31.2502 95.8334H68.7502C74.5002 95.8334 79.1668 91.1667 79.1668 85.4167V14.5834C79.1668 8.83335 74.5002 4.16669 68.7502 4.16669ZM50.0002 88.0209C47.4085 88.0209 45.3127 85.925 45.3127 83.3334C45.3127 80.7417 47.4085 78.6459 50.0002 78.6459C52.5918 78.6459 54.6877 80.7417 54.6877 83.3334C54.6877 85.925 52.5918 88.0209 50.0002 88.0209ZM70.8335 75H29.1668V16.6667H70.8335V75Z" fill="#7031F5"/>
</svg>
