<svg width="100" height="100" viewBox="0 0 100 100" fill="none" xmlns="http://www.w3.org/2000/svg">
<path d="M79.1668 58.3333C67.6627 58.3333 58.3335 67.6625 58.3335 79.1666C58.3335 90.6708 67.6627 100 79.1668 100C90.671 100 100 90.6708 100 79.1666C100 67.6625 90.671 58.3333 79.1668 58.3333ZM91.6668 83.3333H83.3335V91.6666H75.0002V83.3333H66.6668V75H75.0002V66.6666H83.3335V75H91.6668V83.3333Z" fill="#7031F5"/>
<path d="M50.3332 83.3333H24.9998V16.6666H74.9998V50.3583C76.4207 50.1458 77.6873 50 79.1665 50C80.5248 50 81.8498 50.125 83.1582 50.3041V15.4875C83.254 14.1166 82.7623 12.7125 81.7457 11.4791C80.4873 9.95831 78.054 8.33331 74.9998 8.33331H24.9998C20.404 8.33331 16.6665 12.0708 16.6665 16.6666V83.3333C16.6665 87.9291 20.404 91.6666 24.9998 91.6666H52.8457C51.6123 89.075 50.754 86.2791 50.3332 83.3333Z" fill="#7031F5"/>
<path d="M48.396 40.7375C48.396 36.0417 50.9835 35.8959 51.5418 35.8959C52.5626 35.8959 54.9918 36.7959 54.9918 42.5167H62.8668C62.8668 31.5709 55.3835 29.8625 54.046 29.6084V23.5417H49.846V29.4917C48.4335 29.6709 40.5251 31.1584 40.5251 40.7C40.5251 54.6209 54.9376 50.5 54.9376 59.7875C54.9376 64.4375 51.9335 64.55 51.321 64.55C50.7626 64.55 47.0918 64.8459 47.0918 57.7292H39.2168C39.2168 68.6625 46.8543 70.4584 49.246 70.8334H51.2501C53.0876 64.6792 56.8876 59.375 61.9501 55.6625C59.371 46.8417 48.4001 47.9667 48.396 40.7375Z" fill="#7031F5"/>
<path opacity="0.3" d="M50.0002 79.1667C50.0002 63.0583 63.0585 50 79.1668 50V12.5H20.8335V87.5H51.2252C50.4377 84.8583 50.0002 82.0625 50.0002 79.1667Z" fill="#7031F5"/>
</svg>
