<svg width="100" height="100" viewBox="0 0 100 100" fill=" #8F00FF" xmlns="http://www.w3.org/2000/svg">
<path opacity="0.3" d="M50 12.5C45.0754 12.5 40.1991 13.47 35.6494 15.3545C31.0997 17.2391 26.9657 20.0013 23.4835 23.4835C20.0013 26.9657 17.2391 31.0997 15.3545 35.6494C13.47 40.1991 12.5 45.0754 12.5 50C12.5 54.9246 13.47 59.8009 15.3545 64.3506C17.2391 68.9003 20.0013 73.0343 23.4835 76.5165C26.9657 79.9987 31.0997 82.7609 35.6494 84.6455C40.1991 86.53 45.0754 87.5 50 87.5C54.9246 87.5 59.8009 86.53 64.3506 84.6455C68.9003 82.7609 73.0343 79.9987 76.5165 76.5165C79.9987 73.0343 82.7609 68.9003 84.6455 64.3506C86.53 59.8009 87.5 54.9246 87.5 50C87.5 45.0754 86.53 40.1991 84.6455 35.6494C82.7609 31.0997 79.9987 26.9657 76.5165 23.4835C73.0343 20.0013 68.9003 17.2391 64.3506 15.3545C59.8009 13.47 54.9246 12.5 50 12.5Z" fill="#7031F5"/>
<path d="M22.0537 27.9476L27.9462 22.0549L77.9483 72.0553L72.0559 77.948L22.0537 27.9476Z" fill="#7031F5"/>
<path d="M49.9997 91.6666C27.0247 91.6666 8.33301 72.975 8.33301 50C8.33301 27.025 27.0247 8.33331 49.9997 8.33331C72.9747 8.33331 91.6663 27.025 91.6663 50C91.6663 72.975 72.9747 91.6666 49.9997 91.6666ZM49.9997 16.6666C31.6205 16.6666 16.6663 31.6208 16.6663 50C16.6663 68.3791 31.6205 83.3333 49.9997 83.3333C68.3788 83.3333 83.333 68.3791 83.333 50C83.333 31.6208 68.3788 16.6666 49.9997 16.6666Z" fill="#7031F5"/>
<path d="M54.7794 54.7791C54.8085 57.8041 54.8335 60.475 54.8335 60.8291C54.8335 61.5833 54.7294 62.2833 54.5169 62.9291C54.3044 63.5708 53.9877 64.1291 53.5627 64.6C53.1377 65.0708 52.6127 65.4375 51.9877 65.7041C51.3585 65.9666 50.6294 66.1041 49.8002 66.1041C49.0752 66.1041 48.3627 65.9875 47.6627 65.75C46.9669 65.5125 46.3419 65.1083 45.7919 64.5208C45.2419 63.9416 44.8085 63.1625 44.4835 62.1916C44.1544 61.2208 43.9919 59.7833 43.9919 58.3333H36.3252C36.3252 60.7833 36.6419 63.1166 37.2794 64.875C37.9169 66.6333 38.7669 68.0916 39.8294 69.2458C40.8877 70.4041 42.1085 71.2875 43.4794 71.9C44.2502 72.2458 45.0419 72.5041 45.846 72.7125V79.1666H54.1794V72.6291C54.921 72.425 55.6252 72.1625 56.2919 71.8375C57.5919 71.2041 58.7002 70.3666 59.6169 69.3208C60.5377 68.2791 61.2502 67.0416 61.7544 65.6083C62.1002 64.6291 62.2835 63.5291 62.3919 62.375L54.7794 54.7791ZM45.7085 37.6708C45.8835 37.0166 46.1544 36.4458 46.5294 35.9666C46.9002 35.4875 47.371 35.1083 47.9502 34.8333C48.521 34.5583 49.2085 34.4208 50.0044 34.4208C51.471 34.4208 52.6419 35.0291 53.5169 36.2458C54.3794 37.4458 54.8085 39.2625 54.821 41.6666H62.4919C62.4835 39.6583 62.2544 37.8375 61.7919 36.2166C61.3252 34.5708 60.6544 33.1458 59.7877 31.9375C58.9252 30.7291 57.8669 29.75 56.6294 28.9958C55.871 28.525 55.0377 28.1916 54.1669 27.9208V20.8333H45.8335V27.9125C45.171 28.1166 44.5377 28.3625 43.9419 28.6708C42.6585 29.3375 41.5585 30.2 40.6419 31.2625C39.721 32.3291 39.0127 33.5708 38.5169 35C38.2085 35.9041 38.0294 36.8916 37.9127 37.9125L45.371 45.3708C45.4044 42.9125 45.4419 40.1916 45.4419 39.7875C45.4419 39.0333 45.5335 38.325 45.7085 37.6708Z" fill="#7031F5"/>
</svg>
